# xmcd CD database file
#
# Track frame offsets:
#	183
#	11190
#	22605
#	31825
#	42445
#	51715
#	62308
#	72525
#	83335
#	93403
#	105500
#	115705
#	126768
#	137028
#	148948
#	159395
#	169833
#	178658
#	188140
#	198065
#	206508
#	216008
#	225375
#	234858
#	246148
#	257440
#	266175
#	274823
#	284708
#	293868
#	305500
#
# Disc length: 4191 seconds
#
# Revision: 1
# Processed by: cddbd v1.5.1PL0 Copyright (c) Steve Scherf et al.
# Submitted via: CDex 1.51
#
DISCID=ba105d1f
DTITLE=Fireballs - Blue Fire and Rarities
DYEAR=1993
DGENRE=Instrumental Rock
TTITLE0=Blue Fire
TTITLE1=Blues In The Night
TTITLE2=Bluesday
TTITLE3=Wang Wang Blues
TTITLE4=Birth Of The Blues
TTITLE5=Blacksmith Blues
TTITLE6=Blue Tinted Blues
TTITLE7=Wabash Blues
TTITLE8=Big Daddy Blues
TTITLE9=Basin Street Blues
TTITLE10=Bye Bye Blues
TTITLE11=St. Louis Blues
TTITLE12=Almost Paradise
TTITLE13=Sweet Talk
TTITLE14=Sneakers
TTITLE15=I Doubt It
TTITLE16=Yacky Doo
TTITLE17=Clink Clink Classic
TTITLE18=Spotnick
TTITLE19=Power Packed
TTITLE20=Vaquero Latino
TTITLE21=Vaquero
TTITLE22=Wicked
TTITLE23=Rik-A-Tik
TTITLE24=Teekee
TTITLE25=Gunshot
TTITLE26=Doop
TTITLE27=Tuff-A-Nuff
TTITLE28=Josh
TTITLE29=Don´t Lie To Me
TTITLE30=Troquay
EXTD=Ace Records No. CDCHD 472\nThe original Norman Petty Masters\nAlbum "Blue Fire" and Album "Rarities"
EXTT0=
EXTT1=
EXTT2=
EXTT3=
EXTT4=
EXTT5=
EXTT6=
EXTT7=
EXTT8=
EXTT9=
EXTT10=
EXTT11=
EXTT12=
EXTT13=
EXTT14=
EXTT15=
EXTT16=
EXTT17=
EXTT18=
EXTT19=
EXTT20=
EXTT21=
EXTT22=
EXTT23=
EXTT24=
EXTT25=
EXTT26=
EXTT27=
EXTT28=
EXTT29=
EXTT30=
PLAYORDER=
